<svg width="512" height="512" viewBox="0 0 2160 2160" fill="none" xmlns="http://www.w3.org/2000/svg">
  <defs>
    <linearGradient id="gradient_0" gradientUnits="userSpaceOnUse" x1="1815.7755" y1="1091.9296" x2="1085.3784" y2="1114.0002">
      <stop offset="0" stopColor="#A32AF1"/>
      <stop offset="1" stopColor="#376DFF"/>
    </linearGradient>
    <linearGradient id="gradient_1" gradientUnits="userSpaceOnUse" x1="1131.8123" y1="1709.9984" x2="906.66931" y2="1709.379">
      <stop offset="0" stopColor="#3F6CFE"/>
      <stop offset="1" stopColor="#2C89FE"/>
    </linearGradient>
    <linearGradient id="gradient_2" gradientUnits="userSpaceOnUse" x1="1114.1934" y1="986.46289" x2="409.41986" y2="992.95502">
      <stop offset="0" stopColor="#386CFF"/>
      <stop offset="1" stopColor="#14BEFF"/>
    </linearGradient>
    <linearGradient id="gradient_3" gradientUnits="userSpaceOnUse" x1="1269.9144" y1="1075.2654" x2="892.25574" y2="1103.478">
      <stop offset="0" stopColor="#5555F9"/>
      <stop offset="1" stopColor="#2D86FF"/>
    </linearGradient>
  </defs>
  
  <path fill="url(#gradient_0)" d="M1072.3 341.872C1104.13 333.861 1137.64 335.66 1168.43 347.032C1184.89 353.101 1215.8 372.342 1232.14 381.901L1336.22 442.678L1592.59 592.126C1640.96 620.368 1689.28 648.643 1737.63 676.99C1776.26 699.638 1798.58 734.501 1809.42 777.6C1816.09 804.149 1813.38 846.051 1813.77 875.304C1814.34 954.497 1814.49 1033.69 1814.23 1112.89L1814.07 1333.13C1813.82 1364.89 1814.61 1400.1 1812.54 1431.52C1811.23 1451.29 1797.71 1483.77 1787.41 1500.71C1776.21 1519.21 1761.3 1535.19 1743.61 1547.64C1729.38 1557.57 1709.7 1568.22 1694.36 1576.99L1627.42 1615.62L1422.78 1734.71L1279.71 1817.98L1231.81 1846.13C1224.82 1850.22 1212.47 1857.9 1205.51 1860.96C1197.41 1860.6 1181.38 1871.81 1171.88 1875.34C1159.17 1880.07 1142.65 1885.11 1129.03 1884.94C1054.03 1895.91 1009.33 1841.44 987.125 1842.07C984.148 1840.96 961.493 1827.68 957.415 1825.14C940.968 1814.89 919.281 1804.07 903.7 1793.29C903.083 1724.4 904.377 1655.33 903.879 1586.43C903.725 1565.03 903.6 1543.45 904.015 1522.07C958.928 1550.1 1012.76 1589.47 1069.02 1615.48C1074.98 1618.23 1093.5 1621.45 1100.72 1623.02C1159.21 1625.86 1188.73 1600.74 1237.11 1572.63L1373.33 1493.16L1476.93 1432.77C1496.93 1421.12 1519.22 1409.61 1537.41 1395.54C1585.64 1358.25 1577.67 1301.26 1577.61 1248.63L1577.49 1101.85L1577.53 972.958C1577.6 950.512 1579.16 923.807 1576.44 901.826C1568.8 840.136 1512.74 817.034 1465.89 789.481L1342.61 717.052C1304.01 694.111 1265.28 671.405 1226.41 648.934C1190.85 628.296 1164.59 608.046 1122.7 604.014L1121.7 601.218C1114.49 597.894 1113.97 594.441 1103.91 592.245C1105.02 589.54 1105.41 587.848 1104.69 585.052C1101.98 585.119 1102.98 585.251 1100.43 584.248C1099.25 572.744 1106.47 561.398 1096.94 551.449C1095.91 550.372 1096.17 549.55 1095.92 547.923C1097.69 548.814 1096.79 548.754 1098.62 548.164C1103.21 535.901 1100.2 535.022 1101.29 524.201C1100.33 521.717 1099.78 522.236 1098.64 520.687C1095.8 516.814 1101.7 507.395 1101.66 502.458C1101.65 500.589 1102.9 500.051 1104.14 498.805L1103.22 495.764C1103.53 494.78 1103.34 493.707 1102.7 492.892C1102.07 492.077 1101.08 491.623 1100.05 491.675L1099.76 491.317C1099.9 488.827 1100.28 488.559 1099.4 486.623C1096.73 480.789 1096.73 461.006 1098.42 455.415L1101.05 454.135L1100.8 450.569C1098.97 450.996 1099.32 450.626 1096.95 449.795L1097.45 450.976C1095.05 442.02 1101.1 440.632 1096.45 432.838L1092.69 432.116L1092.39 430.589C1095.52 426.685 1097.38 426.747 1098.51 421.653C1097.46 417.685 1097.93 419.009 1094.37 415.845C1095.13 409.926 1099.14 406.069 1098.95 400.618L1096.44 401.269C1093.24 381.069 1090.52 392.619 1101.28 374.841L1098.35 370.84C1098.55 368.456 1099.28 368.67 1101.76 366.506C1101.34 362.863 1100.87 359.227 1100.35 355.597C1097.44 352.92 1092.38 353.15 1088.4 353.016L1088.39 351.393C1090.47 348.98 1092.36 347.378 1092.96 344.323C1089.74 341.667 1076.94 341.818 1072.3 341.872Z" />
  
  <path fill="url(#gradient_1)" d="M904.015 1522.07C958.928 1550.1 1012.76 1589.47 1069.02 1615.48C1074.98 1618.23 1093.5 1621.45 1100.72 1623.02C1108.06 1631.53 1124.59 1624.19 1132.66 1627.31L1132.49 1629.39C1123.82 1634.64 1111.38 1623.65 1105.98 1635.35C1107.85 1639.12 1108.47 1640.03 1110.98 1643.44L1113.76 1642.21C1115.94 1652.35 1102.09 1652.27 1114.78 1659.5L1115.8 1658.79C1115.36 1656.78 1114.97 1654.77 1114.65 1652.74L1115.59 1651.69C1118.76 1657.23 1118.03 1660.71 1117.4 1667.16L1120.89 1665.46C1122.57 1667.72 1120.78 1668.43 1122.44 1672.29C1120.45 1675.07 1120.74 1673.65 1120.46 1676.58L1124.09 1675.1C1125.36 1681.12 1124.43 1681.56 1120.75 1686.36L1121.11 1688.61C1124.2 1689.33 1122.69 1689.11 1126.39 1687.75C1128.42 1693.82 1122.39 1698.51 1123.72 1704.35C1125.55 1704.98 1125.36 1704.95 1127.31 1705.28C1125.42 1715.35 1129.67 1710.71 1129.02 1718C1128.59 1722.71 1129.98 1746.86 1128.66 1748.42L1127.09 1748.02L1126.38 1749.68L1127.6 1751.22C1129.42 1753.55 1130.91 1755.83 1132.53 1758.29C1131.33 1761.41 1128.52 1762.68 1125.29 1764.49L1125.85 1766.59C1127.64 1766.86 1129.34 1767.18 1131.05 1767.76L1131.63 1770.28C1128.66 1774.29 1126.13 1769.68 1124.31 1774.38C1125.5 1777.85 1126.35 1780.11 1127.84 1783.46C1126.75 1787.98 1124.47 1787.68 1124.3 1788.73C1123.33 1794.59 1127.21 1805.15 1125.26 1810.06C1123.48 1810.43 1122.27 1810.78 1120.66 1811.63C1119.38 1816.36 1122.71 1824.91 1121.44 1830.38C1120.36 1835.04 1119.13 1839.64 1117.82 1844.24C1118.95 1845.69 1118.18 1845.16 1120.3 1845.52L1119.85 1847.48L1116.45 1846.74L1115.91 1848.32C1117.13 1849.21 1118.25 1850.14 1119.35 1851.18C1118.53 1856.54 1115.72 1855.31 1116.09 1859.11L1120.1 1858.55L1118.93 1858.56L1120.88 1860.42L1120.13 1863.68L1117.24 1864.29C1116.78 1870.49 1116.2 1871.26 1111.46 1875.21C1110.55 1875.97 1109.63 1876.71 1108.7 1877.44L1108.88 1878.97C1114.69 1880.63 1125.17 1882.39 1129.03 1884.94C1054.03 1895.91 1009.33 1841.44 987.125 1842.07C984.148 1840.96 961.493 1827.68 957.415 1825.14C940.968 1814.89 919.281 1804.07 903.7 1793.29C903.083 1724.4 904.377 1655.33 903.879 1586.43C903.725 1565.03 903.6 1543.45 904.015 1522.07Z" />
  
  <path fill="#1B72F7" d="M1104.14 498.805L1105.23 499.897C1104.15 502.823 1103.36 504.333 1103.31 507.489C1107.21 509.236 1106.11 507.863 1107.43 511.112C1105.55 516.924 1102.93 519.55 1101.29 524.201C1100.33 521.717 1099.78 522.236 1098.64 520.687C1095.8 516.814 1101.7 507.395 1101.66 502.458C1101.65 500.589 1102.9 500.051 1104.14 498.805Z" />
  
  <path fill="url(#gradient_2)" d="M646.926 1645.04C635.007 1636.49 616.89 1626.53 603.904 1618.92C579.153 1604.26 554.263 1589.83 529.237 1575.64C512.179 1565.93 492.121 1555.3 476.477 1544.24C445.821 1521.7 425.071 1487.4 414.879 1451.16C410.026 1433.91 409.633 1418.54 409.94 1400.94C410.317 1379.36 410.415 1357.88 410.129 1336.37C408.5 1251.59 407.982 1166.8 408.575 1082.01C408.078 1011.73 408.177 941.46 408.871 871.191C409.315 848.703 408.09 825.438 410.008 802.946C413.626 760.498 437.968 711.299 472.819 685.861C489.942 673.364 512.449 661.645 530.883 651.003L626.804 595.139L877.976 448.456L973.043 392.789C1003.84 374.722 1038.52 350.832 1072.3 341.872C1076.94 341.818 1089.74 341.667 1092.96 344.323C1092.36 347.378 1090.47 348.98 1088.39 351.393L1088.4 353.016C1092.38 353.15 1097.44 352.92 1100.35 355.597C1100.87 359.227 1101.34 362.863 1101.76 366.506C1099.28 368.67 1098.55 368.456 1098.35 370.84L1101.28 374.841C1090.52 392.619 1093.24 381.069 1096.44 401.269L1098.95 400.618C1099.14 406.069 1095.13 409.926 1094.37 415.845C1097.93 419.009 1097.46 417.685 1098.51 421.653C1097.38 426.747 1095.52 426.685 1092.39 430.589L1092.69 432.116L1096.45 432.838C1101.1 440.632 1095.05 442.02 1097.45 450.976L1096.95 449.795C1099.32 450.626 1098.97 450.996 1100.8 450.569L1101.05 454.135L1098.42 455.415C1096.73 461.006 1096.73 480.789 1099.4 486.623C1100.28 488.559 1099.9 488.827 1099.76 491.317L1100.05 491.675C1101.08 491.623 1102.07 492.077 1102.7 492.892C1103.34 493.707 1103.53 494.78 1103.22 495.764L1104.14 498.805C1102.9 500.051 1101.65 500.589 1101.66 502.458C1101.7 507.395 1095.8 516.814 1098.64 520.687C1099.78 522.236 1100.33 521.717 1101.29 524.201C1100.2 535.022 1103.21 535.901 1098.62 548.164C1096.79 548.754 1097.69 548.814 1095.92 547.923C1096.17 549.55 1095.91 550.372 1096.94 551.449C1106.47 561.398 1099.25 572.744 1100.43 584.248C1102.98 585.251 1101.98 585.119 1104.69 585.052C1105.41 587.848 1105.02 589.54 1103.91 592.245C1113.97 594.441 1114.49 597.894 1121.7 601.218L1122.7 604.014C1120.72 603.808 1118.74 603.685 1116.75 603.645C1067.54 602.838 1042.29 623.313 1001.88 646.915C965.953 667.784 930.138 688.846 894.437 710.101L767.094 784.783C745.523 797.428 723.682 809.816 702.422 822.994C638.796 862.433 646.789 927.19 646.901 992.049L647.041 1126.62L646.926 1645.04Z" />
  
  <path fill="#1B72F7" d="M1100.05 491.675C1101.08 491.623 1102.07 492.077 1102.7 492.892C1103.34 493.707 1103.53 494.78 1103.22 495.764C1102.74 497.287 1101.2 498.214 1099.63 497.92C1098.06 497.626 1096.96 496.204 1097.07 494.611C1097.18 493.018 1098.46 491.757 1100.05 491.675Z" />
  
  <path fill="url(#gradient_3)" d="M1059.04 933.134C1062.61 919.977 1067.51 888.023 1076.25 880.968C1092.44 877.391 1098.51 929.642 1102.9 942.387C1114.81 976.95 1123.86 1005.88 1154.09 1030.14C1186.56 1056.2 1230.43 1067.48 1270.71 1075.99C1276.06 1077.13 1285.53 1079.41 1285.89 1086.01C1287.02 1097.14 1264.91 1099.6 1256.56 1101.5C1211.8 1111.73 1159.49 1124.78 1131.88 1164.55C1106.07 1201.74 1100.82 1241.65 1089.83 1283.86C1088.16 1290.25 1079.56 1296.05 1074.16 1289.14C1069.17 1282.31 1068.01 1269.09 1065.53 1261.18C1051.09 1201.97 1038.59 1153.13 979.073 1125.88C958.148 1115.76 937.804 1109.87 915.413 1104.41C905.678 1102.04 880.128 1098.46 874.5 1090.95C873.607 1087.93 873.481 1088.28 874.045 1085.21C874.468 1082.92 877.832 1078.88 879.831 1078.27C889.391 1075.35 900.543 1073.06 910.179 1070.54C937.237 1063.49 961.511 1056.04 986.191 1042.59C1032.25 1017.49 1045.4 980.701 1059.04 933.134Z" />
  
  <path fill="#5A9CFB" fillOpacity="0.98823529" d="M937.72 1069.09C936.82 1071.39 937.349 1071.67 934.024 1072.79C917.27 1078.43 900.292 1083.02 883.798 1089.57C883.698 1089.61 879.819 1088.87 879.378 1088.75C885.541 1083.41 927.333 1072.15 937.72 1069.09Z" />
  
  <path fill="#1B72F7" d="M1059.04 933.134C1061.01 958.068 1039.9 999.517 1024.04 1018.35C1008.07 1037.32 982.449 1052.08 959.408 1060.56C955.796 1061.89 939.3 1068.08 937.72 1069.09C927.333 1072.15 885.541 1083.41 879.378 1088.75L881.054 1091.17C893.353 1091.83 967.988 1114.09 977.417 1122.24L979.073 1125.88C958.148 1115.76 937.804 1109.87 915.413 1104.41C905.678 1102.04 880.128 1098.46 874.5 1090.95C873.607 1087.93 873.481 1088.28 874.045 1085.21C874.468 1082.92 877.832 1078.88 879.831 1078.27C889.391 1075.35 900.543 1073.06 910.179 1070.54C937.237 1063.49 961.511 1056.04 986.191 1042.59C1032.25 1017.49 1045.4 980.701 1059.04 933.134Z" />
  
  <path fill="#1B72F7" fillOpacity="0.98823529" d="M1078.42 883.515C1079.69 884.58 1079.73 884.58 1080.67 886.444C1080.69 888.634 1074.28 905.7 1072.86 910.995L1071.53 911.103C1069.81 907.215 1075.68 887.219 1078.42 883.515Z" />
  
  <path fill="#2752F4" fillOpacity="0.97254902" d="M987.125 1842.07C1009.33 1841.44 1054.03 1895.91 1129.03 1884.94C1142.65 1885.11 1159.17 1880.07 1171.88 1875.34C1181.38 1871.81 1197.41 1860.6 1205.51 1860.96C1184.74 1875.45 1160.95 1885.04 1135.93 1889C1090.31 1895.92 1050.16 1882.59 1013.07 1857.67C1005.03 1852.27 995.437 1848.17 987.125 1842.07Z" />
</svg>
